<svg xmlns="http://www.w3.org/2000/svg" xmlns:xlink="http://www.w3.org/1999/xlink" width="20" height="16.1298828125" viewBox="0 0 20 16.1298828125" fill="none">
<path d="M20 1.78319L19.515 1.49188C18.1086 0.57633 16.4792 0.0622623 14.8024 0.00532295C13.1258 -0.0516164 11.4652 0.350508 10 1.16847C8.5346 0.350992 6.8742 -0.0508099 5.1976 0.00612945C3.521 0.0630688 1.8916 0.576814 0.485 1.49188L0 1.78319L0 16.1301L1.515 15.2202C2.6808 14.4428 4.0482 14.0232 5.449 14.0131C6.8498 14.0029 8.223 14.4026 9.4 15.1631L10 15.6056L10.6 15.1662C11.7772 14.4049 13.151 14.0045 14.5526 14.014C15.954 14.0237 17.3222 14.4429 18.489 15.2202L20 16.1301L20 1.78319ZM9 2.90036L9 12.7025C7.9084 12.252 6.7396 12.0187 5.559 12.0158C4.3368 12.0203 3.1274 12.2658 2 12.7386L2 2.93536C3.0674 2.33387 4.2706 2.01498 5.4954 2.00885C6.7204 2.00272 7.9266 2.30951 9 2.90036ZM14.5046 2.00885C15.7294 2.01498 16.9326 2.33387 18 2.93536L18 12.7386C16.894 12.2676 15.7056 12.0218 14.5038 12.0152C13.302 12.0087 12.111 12.2416 11 12.7005L11 2.90036C12.0734 2.30951 13.2796 2.00272 14.5046 2.00885Z" fill-rule="evenodd"  fill="#9A9AB0" >
</path>
</svg>
