<svg xmlns="http://www.w3.org/2000/svg" xmlns:xlink="http://www.w3.org/1999/xlink" width="18" height="18.0224609375" viewBox="0 0 18 18.0224609375" fill="none">
<path d="M4 4.00488L10 4.00488L10 6.00738L4 6.00738L4 4.00488Z"   fill="#9A9AB0" >
</path>
<path d="M4 8.00977L10 8.00977L10 10.0123L4 10.0123L4 8.00977Z"   fill="#9A9AB0" >
</path>
<path d="M4 12.0146L8 12.0146L8 14.0171L4 14.0171L4 12.0146Z"   fill="#9A9AB0" >
</path>
<path d="M1.99998 2.00248L12.0001 2.00248L12.0001 15.0187C12.0033 15.3606 12.0656 15.6994 12.184 16.02L3.00006 16.02C2.73474 16.02 2.4804 15.9146 2.29284 15.7268C2.10528 15.539 1.99998 15.2843 1.99998 15.0187L1.99998 2.00248ZM14 15.0187L14 12.0151L16 12.0151L16 15.0187C16 15.2843 15.8947 15.539 15.7072 15.7268C15.5196 15.9146 15.2653 16.02 14.9999 16.02C14.7348 16.02 14.4805 15.9146 14.2929 15.7268C14.1053 15.539 14 15.2843 14 15.0187ZM18 10.0126L14 10.0126L14 0L0 0L0 15.0187C0 15.8155 0.31608 16.5794 0.87876 17.1426C1.44126 17.706 2.20428 18.0225 3.00006 18.0225L14.9999 18.0225C15.7957 18.0225 16.5587 17.706 17.1212 17.1426C17.6839 16.5794 18 15.8155 18 15.0187L18 10.0126Z" fill-rule="evenodd"  fill="#9A9AB0" >
</path>
</svg>
